<svg width="545" height="534" viewBox="0 0 545 534" fill="none" xmlns="http://www.w3.org/2000/svg">
<path d="M196.572 184.04C190.172 198.44 67.38 283.215 5.38 325.549C-1.12 329.996 -3.62008 344.769 8.87992 349.549C42.8799 362.548 71.0724 375.54 121.072 396.04C160.597 409.836 263.439 482.924 319.598 524.905C326.038 529.72 335.113 528.647 340.234 522.448L536.356 284.989C541.08 279.269 540.913 270.955 535.963 265.429L431.663 148.99C429.696 146.795 426.888 145.54 423.94 145.54C418.214 145.54 413.572 140.898 413.572 135.172V128.376C413.572 124.925 412.385 121.604 410.264 118.88C389.296 91.9491 355.398 38.5109 348.5 17.5479C341.428 -3.94395 321.831 -3.45187 314.572 7.04C277.906 60.04 202.972 169.64 196.572 184.04Z" fill="#228BE6"/>
<path d="M142.212 291V276.72H156.156C159.292 276.72 162.008 276.16 164.304 275.04C166.6 273.864 168.364 272.1 169.596 269.748C170.828 267.396 171.444 264.484 171.444 261.012C171.444 257.54 170.8 254.656 169.512 252.36C168.28 250.064 166.516 248.356 164.22 247.236C161.98 246.06 159.292 245.472 156.156 245.472H141.372V231.192H156.156C160.86 231.192 165.172 231.892 169.092 233.292C173.068 234.692 176.512 236.708 179.424 239.34C182.336 241.972 184.576 245.136 186.144 248.832C187.768 252.472 188.58 256.56 188.58 261.096C188.58 265.632 187.768 269.748 186.144 273.444C184.576 277.084 182.336 280.22 179.424 282.852C176.512 285.484 173.096 287.5 169.176 288.9C165.256 290.3 160.972 291 156.324 291H142.212ZM130.956 291V231.192H147.756V291H130.956ZM195.433 291V231.192H212.233V291H195.433ZM222.175 291V231.192H233.935L238.975 243.792V291H222.175ZM263.335 291L228.643 247.404L233.935 231.192L268.627 274.788L263.335 291ZM263.335 291L259.135 277.728V231.192H275.935V291H263.335Z" fill="white"/>
<path d="M301.212 291V276.72H315.156C318.292 276.72 321.008 276.16 323.304 275.04C325.6 273.864 327.364 272.1 328.596 269.748C329.828 267.396 330.444 264.484 330.444 261.012C330.444 257.54 329.8 254.656 328.512 252.36C327.28 250.064 325.516 248.356 323.22 247.236C320.98 246.06 318.292 245.472 315.156 245.472H300.372V231.192H315.156C319.86 231.192 324.172 231.892 328.092 233.292C332.068 234.692 335.512 236.708 338.424 239.34C341.336 241.972 343.576 245.136 345.144 248.832C346.768 252.472 347.58 256.56 347.58 261.096C347.58 265.632 346.768 269.748 345.144 273.444C343.576 277.084 341.336 280.22 338.424 282.852C335.512 285.484 332.096 287.5 328.176 288.9C324.256 290.3 319.972 291 315.324 291H301.212ZM289.956 291V231.192H306.756V291H289.956ZM354.433 291V231.192H371.233V291H354.433ZM381.175 291V231.192H392.935L397.975 243.792V291H381.175ZM422.335 291L387.643 247.404L392.935 231.192L427.627 274.788L422.335 291ZM422.335 291L418.135 277.728V231.192H434.935V291H422.335Z" fill="white"/>
<path d="M319.524 367.008C314.932 367.008 310.648 366.252 306.672 364.74C302.752 363.172 299.308 360.988 296.34 358.188C293.372 355.388 291.048 352.112 289.368 348.36C287.744 344.552 286.932 340.436 286.932 336.012C286.932 331.532 287.744 327.416 289.368 323.664C291.048 319.912 293.344 316.664 296.256 313.92C299.224 311.176 302.668 309.048 306.588 307.536C310.508 305.968 314.764 305.184 319.356 305.184C324.004 305.184 328.26 305.912 332.124 307.368C335.988 308.824 339.348 310.84 342.204 313.416L331.032 324.672C329.688 323.216 328.036 322.068 326.076 321.228C324.172 320.388 321.932 319.968 319.356 319.968C317.116 319.968 315.044 320.332 313.14 321.06C311.292 321.788 309.696 322.852 308.352 324.252C307.008 325.652 305.944 327.36 305.16 329.376C304.432 331.336 304.068 333.548 304.068 336.012C304.068 338.532 304.432 340.8 305.16 342.816C305.944 344.776 307.008 346.456 308.352 347.856C309.696 349.256 311.292 350.348 313.14 351.132C315.044 351.86 317.116 352.224 319.356 352.224C321.876 352.224 324.116 351.832 326.076 351.048C328.092 350.264 329.828 349.116 331.284 347.604L342.54 358.86C339.572 361.436 336.24 363.452 332.544 364.908C328.848 366.308 324.508 367.008 319.524 367.008ZM375.551 367.176C370.847 367.176 366.507 366.392 362.531 364.824C358.611 363.256 355.167 361.072 352.199 358.272C349.287 355.472 347.019 352.168 345.395 348.36C343.771 344.552 342.959 340.436 342.959 336.012C342.959 331.532 343.743 327.416 345.311 323.664C346.935 319.912 349.203 316.636 352.115 313.836C355.027 311.036 358.443 308.88 362.363 307.368C366.339 305.8 370.679 305.016 375.383 305.016C380.087 305.016 384.399 305.8 388.319 307.368C392.295 308.88 395.739 311.036 398.651 313.836C401.563 316.636 403.803 319.94 405.371 323.748C406.995 327.5 407.807 331.616 407.807 336.096C407.807 340.52 406.995 344.636 405.371 348.444C403.803 352.196 401.563 355.5 398.651 358.356C395.739 361.156 392.323 363.34 388.403 364.908C384.483 366.42 380.199 367.176 375.551 367.176ZM375.383 352.392C378.519 352.392 381.235 351.72 383.531 350.376C385.827 349.032 387.591 347.128 388.823 344.664C390.055 342.2 390.671 339.316 390.671 336.012C390.671 333.548 390.307 331.336 389.579 329.376C388.907 327.36 387.899 325.652 386.555 324.252C385.211 322.796 383.587 321.704 381.683 320.976C379.835 320.192 377.735 319.8 375.383 319.8C372.247 319.8 369.531 320.472 367.235 321.816C364.939 323.104 363.175 324.98 361.943 327.444C360.711 329.852 360.095 332.708 360.095 336.012C360.095 338.532 360.431 340.8 361.103 342.816C361.831 344.832 362.867 346.568 364.211 348.024C365.555 349.424 367.151 350.516 368.999 351.3C370.903 352.028 373.031 352.392 375.383 352.392ZM414.726 366V306.192H426.906L449.166 338.784H443.874L466.05 306.192H478.23V366H461.598V333.744L464.034 334.416L451.854 351.888H441.102L429.006 334.416L431.358 333.744V366H414.726Z" fill="white"/>
<path d="M142.212 366V351.72H156.156C159.292 351.72 162.008 351.16 164.304 350.04C166.6 348.864 168.364 347.1 169.596 344.748C170.828 342.396 171.444 339.484 171.444 336.012C171.444 332.54 170.8 329.656 169.512 327.36C168.28 325.064 166.516 323.356 164.22 322.236C161.98 321.06 159.292 320.472 156.156 320.472H141.372V306.192H156.156C160.86 306.192 165.172 306.892 169.092 308.292C173.068 309.692 176.512 311.708 179.424 314.34C182.336 316.972 184.576 320.136 186.144 323.832C187.768 327.472 188.58 331.56 188.58 336.096C188.58 340.632 187.768 344.748 186.144 348.444C184.576 352.084 182.336 355.22 179.424 357.852C176.512 360.484 173.096 362.5 169.176 363.9C165.256 365.3 160.972 366 156.324 366H142.212ZM130.956 366V306.192H147.756V366H130.956ZM195.433 366V306.192H212.233V366H195.433ZM222.175 366V306.192H233.935L238.975 318.792V366H222.175ZM263.335 366L228.643 322.404L233.935 306.192L268.627 349.788L263.335 366ZM263.335 366L259.135 352.728V306.192H275.935V366H263.335Z" fill="white"/>
</svg>
